<svg id="visual" viewBox="0 0 900 600" width="900" height="600" xmlns="http://www.w3.org/2000/svg" xmlns:xlink="http://www.w3.org/1999/xlink" version="1.1"><rect x="0" y="0" width="900" height="600" fill="#FAF1E4"></rect><g transform="translate(436.2550134116755 329.93216160276995)"><path d="M121 -165.9C168.6 -132 226.9 -112.4 253.9 -72.4C280.9 -32.3 276.4 28 254.7 78.9C232.9 129.8 193.7 171.3 148.4 189.1C103.1 206.8 51.5 200.9 3 196.7C-45.5 192.6 -90.9 190.1 -134.7 171.8C-178.4 153.6 -220.4 119.4 -236.7 75.5C-253 31.5 -243.5 -22.2 -225.9 -72.5C-208.3 -122.7 -182.6 -169.3 -143.6 -206C-104.6 -242.7 -52.3 -269.3 -7.8 -258.6C36.7 -247.9 73.5 -199.8 121 -165.9" fill="#9EB384"></path></g></svg>