<svg id="visual" viewBox="0 0 900 600" width="900" height="600" xmlns="http://www.w3.org/2000/svg" xmlns:xlink="http://www.w3.org/1999/xlink" version="1.1"><rect x="0" y="0" width="900" height="600" fill="#FAF1E4"></rect><g transform="translate(445.01681733160774 298.7146504414553)"><path d="M128.6 -176.5C158.9 -155 170.3 -107 190.1 -58.8C209.9 -10.5 238.1 38 236.2 86.9C234.3 135.9 202.4 185.3 158 205.2C113.6 225.1 56.8 215.5 9.6 202.3C-37.6 189.1 -75.2 172.2 -107.1 148.2C-139 124.3 -165.1 93.2 -187.5 53.9C-209.9 14.6 -228.6 -32.9 -226.1 -83.7C-223.6 -134.5 -200 -188.6 -158.8 -206.4C-117.6 -224.3 -58.8 -205.9 -4.8 -199.3C49.2 -192.7 98.4 -197.9 128.6 -176.5" fill="#9EB384"></path></g></svg>